<?xml version="1.0" standalone="no"?>
<!DOCTYPE svg PUBLIC "-//W3C//DTD SVG 20010904//EN"
 "http://www.w3.org/TR/2001/REC-SVG-20010904/DTD/svg10.dtd">
<svg version="1.0" xmlns="http://www.w3.org/2000/svg"
 width="1024.000000pt" height="683.000000pt" viewBox="0 0 1024.000000 683.000000"
 preserveAspectRatio="xMidYMid meet">

<g transform="translate(0.000000,683.000000) scale(0.100000,-0.100000)"
fill="#000000" stroke="none">
<path d="M3075 4471 c-151 -61 -222 -102 -284 -164 -72 -73 -120 -141 -180
-257 -24 -47 -48 -90 -52 -96 -5 -6 -32 -55 -60 -110 -88 -167 -99 -188 -108
-204 -5 -8 -16 -31 -24 -50 -43 -97 -89 -198 -102 -223 -8 -16 -15 -36 -15
-45 0 -9 -7 -30 -15 -46 -10 -19 -12 -33 -6 -39 12 -12 41 8 41 27 0 6 18 47
40 91 22 44 40 85 40 91 0 6 7 17 15 24 8 7 15 20 15 30 0 9 9 25 20 35 11 10
20 26 20 35 0 10 9 29 20 43 11 14 20 32 20 41 0 8 9 21 20 29 12 9 18 20 14
30 -3 9 3 24 15 36 12 12 21 28 21 37 0 9 9 27 20 41 11 14 20 34 20 44 0 10
5 21 10 24 6 4 17 22 25 42 8 19 24 37 36 40 15 4 20 12 16 29 -3 17 3 28 19
39 13 9 24 24 24 35 0 11 9 25 20 32 11 7 20 18 20 25 0 7 14 22 30 35 17 12
30 28 30 35 0 7 4 13 9 13 7 0 30 19 106 87 41 37 92 70 145 93 73 31 214 40
264 16 19 -9 38 -16 44 -16 14 0 136 -95 185 -143 59 -59 137 -104 148 -86 13
20 11 24 -15 44 -13 10 -22 24 -19 31 3 7 -5 14 -19 16 -15 2 -22 9 -20 21 2
12 -4 17 -21 17 -16 0 -31 10 -42 28 -34 51 -80 89 -120 96 -21 4 -56 16 -77
27 -20 10 -46 19 -56 19 -11 0 -36 7 -55 15 -53 22 -103 18 -182 -14z"/>
<path d="M3141 4200 c-13 -11 -32 -20 -42 -20 -10 0 -25 -12 -33 -27 -8 -16
-45 -57 -83 -93 -55 -53 -71 -76 -82 -115 -7 -28 -19 -59 -26 -70 -6 -11 -15
-41 -18 -67 -4 -26 -29 -92 -57 -148 -27 -56 -50 -110 -50 -120 0 -11 -4 -21
-9 -24 -5 -3 -12 -22 -16 -42 -3 -20 -10 -44 -14 -53 -5 -9 -13 -32 -18 -51
-6 -19 -16 -54 -23 -78 -10 -30 -10 -46 -3 -53 19 -19 -18 -127 -51 -149 -53
-34 -91 -35 -157 0 -43 22 -61 27 -63 18 -3 -7 -10 -30 -16 -50 -11 -36 -41
-62 -128 -109 -26 -15 -30 -23 -36 -80 -5 -59 -10 -277 -6 -289 1 -3 4 -30 6
-60 3 -30 12 -86 20 -124 l15 -69 -28 -23 c-15 -13 -32 -24 -38 -24 -48 -6
-59 -5 -71 7 -18 18 -34 9 -27 -17 4 -13 -1 -22 -13 -25 -11 -3 -32 -13 -47
-21 -40 -20 -67 -18 -88 7 -18 21 -56 22 -51 1 1 -7 -2 -12 -8 -12 -5 0 -10 6
-10 13 0 6 -7 25 -16 42 -8 16 -12 40 -9 53 4 17 2 23 -7 20 -7 -3 -15 -20
-18 -39 -4 -29 -9 -34 -33 -35 -15 -1 -30 3 -33 8 -3 4 -11 5 -17 1 -17 -10
-47 -11 -41 -1 3 4 -4 8 -15 8 -10 0 -22 -6 -24 -12 -4 -10 -6 -10 -6 0 -1 6
-12 12 -25 12 -27 0 -49 21 -41 41 3 8 -4 41 -15 74 l-19 60 0 -111 c-1 -110
-1 -112 23 -118 14 -3 28 -15 31 -26 3 -11 10 -20 15 -20 4 0 10 -9 13 -21 3
-11 14 -23 25 -26 11 -3 22 -13 25 -24 4 -14 14 -19 37 -19 21 0 30 -4 27 -12
-2 -8 15 -23 42 -35 l46 -23 -47 6 c-54 6 -48 20 -53 -116 -1 -36 -8 -96 -14
-135 -7 -38 -16 -104 -21 -145 -12 -102 -51 -344 -65 -405 -4 -19 -13 -75 -30
-201 -7 -51 -7 -51 25 -63 43 -14 82 -14 102 1 9 8 29 67 46 143 17 72 47 198
66 280 19 83 53 229 76 325 22 96 47 202 55 234 8 32 12 63 9 67 -3 5 0 9 5 9
6 0 11 -4 11 -9 0 -5 13 -14 30 -20 18 -6 30 -6 30 0 0 14 26 11 39 -5 11 -13
73 -31 211 -61 100 -22 96 -21 165 -38 33 -8 103 -25 155 -36 52 -12 113 -26
135 -31 22 -5 60 -12 85 -16 25 -3 58 -13 73 -21 15 -8 37 -11 47 -8 10 3 38
1 60 -5 23 -6 53 -13 68 -15 15 -2 65 -11 112 -20 163 -30 196 -35 232 -35 20
0 51 -8 70 -17 60 -30 68 -33 83 -33 8 0 22 -11 31 -25 17 -26 17 -163 -2
-1008 -5 -214 -4 -280 6 -292 9 -10 32 -15 76 -15 113 0 107 -9 128 196 9 99
24 238 33 309 8 72 12 156 9 189 -5 51 -4 57 9 46 13 -10 15 -9 15 9 0 11 -5
21 -11 21 -16 0 -2 95 18 126 17 26 9 49 -8 24 -8 -11 -9 -6 -5 20 3 19 8 70
12 112 3 45 10 75 16 72 6 -4 7 8 3 29 -5 25 -2 42 10 60 12 20 15 39 10 85
l-6 59 39 16 c21 8 72 19 113 23 41 3 82 11 91 15 9 5 28 10 42 11 15 1 26 5
26 9 0 4 10 5 22 1 11 -3 19 -1 15 4 -3 5 22 8 59 6 44 -2 64 1 64 9 0 7 9 9
24 5 14 -3 28 -2 31 4 3 5 34 10 68 11 34 0 87 4 117 8 36 6 60 5 68 -2 9 -7
16 -7 20 -1 10 14 125 44 169 44 21 0 50 6 65 14 15 8 28 10 30 5 2 -5 38 -2
83 6 44 8 145 25 225 37 80 12 147 25 150 28 12 15 44 20 52 8 6 -11 8 -10 8
0 0 7 4 10 10 7 5 -3 46 3 91 14 46 11 86 18 90 15 4 -2 10 0 14 6 3 5 18 10
33 10 15 1 44 7 64 14 27 10 39 10 43 2 3 -8 7 -7 11 2 3 6 17 12 30 12 14 0
27 6 30 14 3 9 19 12 47 10 51 -4 149 26 142 43 -6 18 13 26 56 25 33 -2 40 2
45 22 7 30 52 42 71 18 7 -10 10 -23 8 -29 -2 -7 0 -13 5 -13 6 0 10 7 10 16
0 8 4 13 8 10 4 -2 8 3 9 12 3 33 9 49 26 66 15 15 22 43 18 69 0 4 8 16 19
27 14 14 18 28 14 45 -4 16 -2 25 6 25 6 0 9 4 5 9 -3 6 3 14 12 20 16 9 16
12 3 21 -13 9 -13 10 0 10 12 0 40 42 46 70 0 3 7 19 14 35 7 17 13 33 12 38
-1 4 3 7 8 7 6 0 10 11 10 23 0 13 9 34 20 47 11 13 21 35 22 49 2 38 3 45 9
56 3 6 11 37 18 70 7 33 17 70 22 83 5 13 9 34 9 47 0 13 4 25 9 27 5 2 12 32
15 68 4 36 11 81 16 100 5 19 12 60 15 90 15 136 26 250 29 307 2 34 6 66 10
71 3 5 8 69 10 143 4 103 3 122 -5 84 -16 -84 -19 -95 -28 -95 -5 0 -5 16 -1
38 12 52 30 255 24 262 -3 3 -12 -4 -20 -15 -12 -16 -17 -17 -23 -6 -5 7 -11
9 -14 4 -3 -5 -2 -15 4 -23 13 -22 11 -28 -13 -33 -23 -4 -23 -4 2 -15 23 -10
23 -11 4 -11 -17 -1 -20 -6 -16 -26 2 -14 8 -25 13 -25 15 0 10 -40 -5 -46
-18 -7 -29 -63 -16 -79 7 -8 3 -11 -13 -11 -18 1 -21 -4 -19 -24 2 -18 -4 -28
-19 -35 -13 -5 -25 -16 -27 -24 -3 -8 0 -11 7 -7 8 5 9 -10 6 -51 -3 -38 0
-60 8 -65 8 -6 5 -10 -10 -14 -14 -4 -23 -14 -23 -25 0 -11 -6 -19 -14 -19 -8
0 -17 -14 -21 -31 -4 -17 -13 -33 -21 -36 -8 -3 -11 -9 -8 -14 3 -5 10 -6 16
-3 7 5 9 1 5 -9 -4 -11 0 -17 13 -19 15 -2 17 -7 10 -18 -9 -13 -11 -13 -20 0
-8 13 -10 12 -10 -2 0 -10 4 -18 9 -18 12 0 2 -39 -16 -65 -11 -17 -13 -17
-13 -2 0 9 6 17 13 17 8 0 7 4 -3 10 -13 9 -13 10 0 10 12 0 13 2 1 9 -7 5
-10 14 -7 20 4 6 1 11 -7 11 -10 0 -13 -7 -10 -19 3 -12 -3 -24 -18 -35 -13
-8 -19 -19 -15 -23 5 -5 11 -2 13 5 9 23 23 12 17 -13 -4 -15 -2 -25 5 -25 25
0 9 -20 -16 -21 -17 -1 -21 -3 -10 -6 9 -2 17 -9 17 -15 0 -5 -7 -8 -15 -5 -8
4 -17 2 -20 -4 -4 -5 1 -12 9 -15 9 -3 16 -12 16 -20 0 -17 -12 -18 -29 -1
-10 10 -12 8 -9 -8 2 -11 -3 -27 -12 -35 -16 -16 -23 -70 -9 -70 5 0 9 -4 9
-10 0 -38 -62 21 -87 83 -10 24 -22 37 -33 37 -11 0 -22 5 -25 10 -4 6 5 10
19 10 34 0 33 18 -1 26 -16 3 -37 9 -48 12 -34 10 -310 9 -316 -1 -4 -5 -14
-5 -25 1 -13 7 -25 7 -37 0 -10 -5 -30 -7 -45 -4 -21 5 -24 4 -12 -5 11 -8 -2
-9 -52 -5 -41 3 -68 1 -68 -4 0 -14 -34 -12 -48 2 -10 10 -14 10 -21 0 -6 -10
-30 -13 -90 -10 -44 2 -81 0 -81 -4 0 -4 -12 -6 -27 -6 -68 3 -128 -3 -108
-11 11 -4 56 -4 100 0 44 5 113 8 153 7 69 -1 74 -2 83 -26 5 -14 8 -30 5 -36
-2 -6 -5 -3 -5 7 -1 18 -31 25 -31 7 0 -5 5 -10 12 -10 9 0 9 -3 1 -11 -6 -6
-9 -18 -5 -27 3 -10 -3 -7 -16 6 -12 12 -22 28 -22 35 0 9 -3 8 -9 -2 -5 -8
-16 -11 -30 -6 -12 4 -21 2 -21 -4 0 -15 -27 -14 -32 1 -3 7 -24 12 -55 11
-60 -1 -87 -12 -57 -24 15 -6 13 -8 -11 -8 -23 -1 -27 -4 -15 -11 8 -5 10 -10
4 -10 -6 0 -17 6 -23 14 -9 11 -9 15 1 19 7 3 2 5 -12 4 -14 -1 -29 -6 -33
-12 -5 -6 -7 0 -4 13 3 12 1 22 -4 22 -5 0 -9 -9 -9 -19 0 -24 -16 -36 -23
-19 -3 8 -6 6 -6 -5 -1 -10 -5 -15 -11 -12 -5 3 -10 2 -10 -2 0 -14 -84 -10
-98 4 -21 21 -45 16 -39 -7 5 -21 -7 -27 -19 -9 -5 8 -9 8 -14 -1 -10 -17 -31
-3 -23 15 3 8 0 15 -6 15 -6 0 -11 -4 -11 -10 0 -5 -9 -10 -20 -10 -11 0 -20
4 -20 10 0 6 -9 6 -25 0 -16 -6 -26 -6 -31 1 -4 7 -9 7 -13 2 -3 -5 -21 -20
-40 -32 -33 -24 -33 -24 -26 -2 4 12 2 21 -4 21 -6 0 -11 -4 -11 -9 0 -8 -24
-13 -113 -24 -18 -3 -31 1 -34 10 -6 16 -34 18 -31 2 2 -6 -12 -12 -32 -13
-19 -1 -41 -5 -47 -9 -6 -4 -15 -2 -20 5 -4 7 -21 20 -37 28 l-29 15 44 8 c24
4 65 6 92 5 26 -2 48 0 50 4 1 4 35 9 74 10 40 2 73 7 73 11 0 5 4 6 9 3 12
-8 42 4 36 13 -2 4 -30 4 -62 -2 -60 -9 -126 -14 -278 -21 -100 -4 -212 -18
-353 -42 -51 -9 -95 -14 -98 -11 -3 3 13 8 35 12 l40 7 -16 25 c-16 24 -17 24
-30 7 -7 -10 -13 -14 -13 -9 0 5 -5 4 -12 -3 -19 -19 -45 -14 -52 11 -9 33 -8
37 10 37 8 0 12 5 9 10 -3 6 0 10 8 10 8 0 17 7 21 15 3 8 17 15 30 15 18 0
24 4 20 14 -4 11 1 13 18 10 13 -2 17 -2 11 2 -17 8 -16 24 1 24 21 0 26 37 7
52 -23 19 -77 35 -136 39 -68 5 -346 2 -352 -4 -2 -3 34 -102 81 -220 47 -119
86 -220 86 -225 0 -6 4 -12 8 -14 10 -4 62 -121 62 -140 0 -8 5 -19 12 -26 6
-6 8 -15 3 -19 -4 -5 -10 -2 -12 5 -3 7 -11 18 -18 26 -8 7 -11 16 -8 20 4 3
-3 6 -14 6 -16 0 -19 6 -18 29 2 34 -19 66 -35 56 -9 -5 -10 -1 -5 14 4 13 2
21 -5 21 -6 0 -10 8 -9 18 4 23 -10 62 -22 62 -5 0 -9 9 -9 20 0 11 -7 20 -15
20 -9 0 -12 6 -8 15 3 9 -2 22 -12 29 -13 9 -15 15 -6 20 16 10 4 26 -14 19
-8 -3 -15 0 -15 7 0 6 5 8 10 5 11 -7 13 6 4 29 -3 8 -11 14 -17 12 -7 -1 -9
-1 -4 1 11 7 9 43 -3 43 -5 0 -10 7 -10 15 0 8 -6 15 -14 15 -10 0 -12 11 -10
40 3 30 -1 42 -12 47 -8 3 -13 12 -10 19 3 7 -2 20 -10 28 -11 12 -12 20 -5
34 9 17 7 18 -16 14 -18 -3 -24 -1 -19 7 4 6 12 9 17 6 5 -4 9 1 9 9 0 9 -7
16 -15 16 -8 0 -15 5 -15 11 0 6 7 9 15 6 8 -4 17 -2 20 3 4 6 2 10 -3 10 -16
0 -31 57 -25 93 l5 34 101 6 c99 6 145 22 99 33 -12 4 -22 10 -22 15 0 5 -7 6
-15 3 -9 -4 -27 8 -47 30 -17 20 -38 36 -45 36 -8 0 -13 12 -13 30 0 17 -4 30
-10 30 -5 0 -10 -4 -10 -10 0 -5 -7 -10 -15 -10 -8 0 -15 5 -15 10 0 6 5 10
10 10 20 0 10 27 -15 40 -24 13 -35 50 -15 50 6 0 10 5 10 10 0 6 -12 9 -27 8
-25 -3 -28 0 -28 25 1 20 -4 27 -18 27 -14 0 -18 6 -15 28 2 18 -2 27 -12 28
-8 1 -21 2 -27 3 -7 0 -13 9 -13 20 0 10 -7 24 -15 31 -8 7 -15 19 -15 26 0 8
-11 16 -25 20 -14 3 -25 9 -25 13 0 4 -25 33 -56 65 -65 68 -111 82 -153 46z
m3546 -256 c-3 -3 -12 -4 -19 -1 -8 3 -5 6 6 6 11 1 17 -2 13 -5z m-9 -144 c7
-11 8 -20 4 -20 -5 0 -17 9 -27 20 -14 15 -15 20 -4 20 8 0 20 -9 27 -20z
m-55 -97 c-7 -2 -21 -2 -30 0 -10 3 -4 5 12 5 17 0 24 -2 18 -5z m-3063 -137
c0 -3 -4 -17 -10 -31 -9 -24 -30 -27 -30 -4 0 6 5 7 10 4 6 -3 10 3 10 14 0
12 5 21 10 21 6 0 10 -2 10 -4z m3120 -26 c0 -5 -2 -10 -4 -10 -3 0 -8 5 -11
10 -3 6 -1 10 4 10 6 0 11 -4 11 -10z m-3110 -83 c0 -5 -4 -5 -10 -2 -5 3 -10
14 -10 23 0 15 2 15 10 2 5 -8 10 -19 10 -23z m2970 -13 c0 -14 -4 -23 -9 -20
-5 3 -7 15 -4 26 7 28 13 25 13 -6z m82 -136 c-8 -8 -9 -4 -5 13 4 13 8 18 11
10 2 -7 -1 -18 -6 -23z m-607 -108 c-3 -5 1 -10 10 -10 10 0 13 5 9 11 -5 9
16 10 77 5 46 -3 92 -7 102 -7 9 0 17 -4 17 -9 0 -13 -33 -21 -44 -10 -14 14
-26 12 -20 -4 5 -13 -25 -24 -84 -32 -20 -3 -21 -1 -7 12 21 21 19 27 -5 12
-16 -10 -24 -10 -40 0 -26 16 -43 15 -37 -1 4 -10 -2 -13 -18 -9 -12 2 -26 -1
-29 -7 -10 -16 -35 -14 -52 4 -14 13 -14 15 0 15 8 0 18 -4 21 -10 3 -5 11
-10 16 -10 6 0 4 7 -5 15 -8 8 -32 15 -53 15 -31 -1 -35 -3 -20 -11 20 -12 14
-29 -11 -29 -14 0 -15 2 -2 10 13 8 13 9 0 14 -44 14 -45 14 -27 15 10 1 16 4
13 9 -5 8 79 10 88 1 3 -3 22 -3 43 -1 31 4 34 6 18 13 -16 6 -14 8 13 8 20 1
31 -3 27 -9z m571 -56 c-24 -90 -114 -310 -116 -282 0 4 23 63 50 131 28 68
50 131 50 139 0 21 21 80 27 75 2 -3 -3 -31 -11 -63z m-826 36 c-14 -4 -20 -8
-14 -9 7 -1 14 -9 18 -18 3 -10 8 -23 11 -28 3 -6 -4 -11 -15 -12 -11 -1 -20
3 -20 8 0 6 5 7 10 4 6 -3 10 -1 10 5 0 20 -31 23 -45 4 -7 -11 -17 -16 -21
-11 -4 4 -2 13 4 19 19 19 14 28 -13 28 -14 0 -25 3 -25 8 0 4 28 8 63 9 44 1
55 -1 37 -7z m-320 -60 c0 -5 -7 -10 -15 -10 -8 0 -15 5 -15 10 0 6 7 10 15
10 8 0 15 -4 15 -10z m-1015 -50 c3 -6 -1 -7 -9 -4 -18 7 -21 14 -7 14 6 0 13
-4 16 -10z m-398 -16 c-3 -3 -12 -4 -19 -1 -8 3 -5 6 6 6 11 1 17 -2 13 -5z
m473 -15 c0 -4 -7 -6 -15 -3 -8 4 -15 10 -15 15 0 4 7 6 15 3 8 -4 15 -10 15
-15z m-730 -124 c0 -8 -4 -15 -10 -15 -5 0 -7 7 -4 15 4 8 8 15 10 15 2 0 4
-7 4 -15z m2360 -100 c-7 -8 -17 -15 -23 -15 -6 0 -2 8 9 19 22 21 33 19 14
-4z m320 -5 c0 -5 -5 -10 -11 -10 -5 0 -7 5 -4 10 3 6 8 10 11 10 2 0 4 -4 4
-10z m-491 -84 c-2 -2 -15 -9 -29 -15 -24 -11 -24 -11 -6 3 16 13 49 24 35 12z
m-222 -62 c-3 -3 -12 -4 -19 -1 -8 3 -5 6 6 6 11 1 17 -2 13 -5z m-78 -8 c-2
-2 -17 -6 -34 -10 -22 -5 -26 -4 -15 4 14 9 59 15 49 6z m-72 -12 c-3 -3 -12
-4 -19 -1 -8 3 -5 6 6 6 11 1 17 -2 13 -5z m-3622 -604 c3 -5 2 -10 -4 -10 -5
0 -13 5 -16 10 -3 6 -2 10 4 10 5 0 13 -4 16 -10z m-92 -7 c-7 -2 -19 -2 -25
0 -7 3 -2 5 12 5 14 0 19 -2 13 -5z m1980 -1210 c-5 -11 -8 -12 -13 -2 -5 7
-6 19 -3 26 5 11 8 12 13 2 5 -7 6 -19 3 -26z"/>
<path d="M6128 3193 c7 -3 16 -2 19 1 4 3 -2 6 -13 5 -11 0 -14 -3 -6 -6z"/>
<path d="M5935 3170 c3 -5 8 -10 11 -10 2 0 4 5 4 10 0 6 -5 10 -11 10 -5 0
-7 -4 -4 -10z"/>
<path d="M6110 3170 c0 -5 5 -10 10 -10 6 0 10 5 10 10 0 6 -4 10 -10 10 -5 0
-10 -4 -10 -10z"/>
<path d="M3832 4123 c-24 -27 -59 -27 -54 0 3 21 -7 21 -32 2 -19 -14 -18 -17
20 -72 99 -146 140 -191 132 -146 -2 10 8 23 24 32 25 15 34 14 110 -6 52 -13
89 -18 98 -12 10 6 4 8 -22 9 -24 0 -46 8 -65 24 -16 13 -42 26 -58 28 -22 2
-31 9 -33 25 -3 18 0 22 15 16 10 -3 15 -3 11 1 -3 4 -14 9 -25 11 -10 2 -20
4 -23 5 -3 0 4 7 14 15 24 18 27 18 -62 0 -40 -9 -77 -13 -83 -10 -14 9 -11
35 4 35 18 0 71 56 60 63 -5 3 -18 -6 -31 -20z"/>
<path d="M790 3781 c-7 -17 -9 -39 -5 -48 6 -14 10 -10 21 21 17 47 3 71 -16
27z"/>
<path d="M876 3753 c-9 -10 -7 -43 3 -43 11 0 21 39 11 45 -4 2 -10 2 -14 -2z"/>
<path d="M940 3720 c0 -5 5 -10 10 -10 6 0 10 5 10 10 0 6 -4 10 -10 10 -5 0
-10 -4 -10 -10z"/>
<path d="M871 3684 c0 -11 3 -14 6 -6 3 7 2 16 -1 19 -3 4 -6 -2 -5 -13z"/>
<path d="M922 3669 c-18 -58 -19 -83 -1 -87 13 -2 18 8 23 42 4 25 3 53 -2 62
-8 14 -11 11 -20 -17z"/>
<path d="M1003 3643 c-7 -15 -13 -36 -12 -47 0 -13 6 -6 15 18 17 47 15 67 -3
29z"/>
<path d="M1142 3620 c0 -14 2 -19 5 -12 2 6 2 18 0 25 -3 6 -5 1 -5 -13z"/>
<path d="M1060 3590 c0 -5 5 -10 10 -10 6 0 10 5 10 10 0 6 -4 10 -10 10 -5 0
-10 -4 -10 -10z"/>
<path d="M1117 3570 c-3 -11 -1 -23 4 -26 5 -3 9 6 9 20 0 31 -6 34 -13 6z"/>
<path d="M1182 3545 c0 -16 2 -22 5 -12 2 9 2 23 0 30 -3 6 -5 -1 -5 -18z"/>
<path d="M1110 3515 c0 -8 5 -15 10 -15 6 0 10 7 10 15 0 8 -4 15 -10 15 -5 0
-10 -7 -10 -15z"/>
<path d="M1226 3504 c-4 -9 -4 -19 -1 -22 2 -3 7 3 11 12 4 9 4 19 1 22 -2 3
-7 -3 -11 -12z"/>
<path d="M1051 3474 c0 -11 3 -14 6 -6 3 7 2 16 -1 19 -3 4 -6 -2 -5 -13z"/>
<path d="M1356 3482 c-2 -4 -7 -66 -10 -137 -5 -118 -4 -126 8 -85 7 25 14 87
15 138 2 86 -1 103 -13 84z"/>
<path d="M1451 3458 c-8 -23 -14 -152 -6 -133 6 14 22 155 18 155 -2 0 -7 -10
-12 -22z"/>
<path d="M1299 3458 c0 -7 -2 -41 -5 -75 -3 -37 -1 -64 6 -68 6 -4 10 21 10
74 0 45 -2 81 -5 81 -3 0 -5 -6 -6 -12z"/>
<path d="M1498 3414 c-5 -4 -8 -32 -7 -63 1 -53 1 -54 10 -22 11 37 8 97 -3
85z"/>
<path d="M1706 3338 c-9 -52 -5 -155 5 -136 14 25 24 168 12 168 -6 0 -13 -15
-17 -32z"/>
<path d="M1170 3315 c0 -8 4 -15 10 -15 5 0 7 7 4 15 -4 8 -8 15 -10 15 -2 0
-4 -7 -4 -15z"/>
<path d="M1641 3238 c-6 -36 -11 -76 -11 -89 1 -42 19 2 21 52 1 24 6 51 10
60 4 8 4 21 0 28 -6 8 -13 -11 -20 -51z"/>
<path d="M1160 3270 c0 -5 5 -10 10 -10 6 0 10 5 10 10 0 6 -4 10 -10 10 -5 0
-10 -4 -10 -10z"/>
<path d="M6405 3271 c-3 -5 -1 -12 5 -16 5 -3 10 1 10 9 0 18 -6 21 -15 7z"/>
<path d="M6345 3220 c-3 -5 -1 -10 4 -10 6 0 11 5 11 10 0 6 -2 10 -4 10 -3 0
-8 -4 -11 -10z"/>
<path d="M5210 3180 c-34 -7 -34 -7 -5 -8 17 0 39 3 50 8 24 10 4 10 -45 0z"/>
<path d="M4128 3173 c7 -3 16 -2 19 1 4 3 -2 6 -13 5 -11 0 -14 -3 -6 -6z"/>
<path d="M5013 3161 c-78 -9 -145 -19 -149 -23 -3 -4 9 -5 27 -3 19 3 57 7 84
9 141 13 186 20 191 27 3 5 2 8 -3 8 -4 -1 -72 -9 -150 -18z"/>
<path d="M5385 3160 c3 -5 8 -10 11 -10 2 0 4 5 4 10 0 6 -5 10 -11 10 -5 0
-7 -4 -4 -10z"/>
<path d="M5423 3157 c-3 -6 -1 -7 5 -3 6 3 13 2 17 -3 3 -6 12 -8 21 -4 8 3
12 8 9 11 -10 10 -46 9 -52 -1z"/>
<path d="M5499 3143 c-13 -15 -12 -15 9 -4 23 12 28 21 13 21 -5 0 -15 -7 -22
-17z"/>
<path d="M5580 3138 c0 -9 5 -20 10 -23 13 -8 13 5 0 25 -8 13 -10 13 -10 -2z"/>
<path d="M4260 3130 c0 -5 12 -10 28 -9 24 0 25 1 7 9 -27 12 -35 12 -35 0z"/>
<path d="M4130 3118 c0 -23 13 -29 49 -22 31 7 37 24 11 32 -7 3 -10 0 -6 -7
10 -15 -27 -14 -42 1 -9 9 -12 8 -12 -4z"/>
<path d="M2266 3103 c-4 -9 -2 -21 4 -27 7 -7 10 -2 10 17 0 31 -5 34 -14 10z"/>
<path d="M5185 3100 c-3 -5 -1 -10 4 -10 6 0 11 5 11 10 0 6 -2 10 -4 10 -3 0
-8 -4 -11 -10z"/>
<path d="M4580 3076 c0 -2 7 -7 16 -10 8 -3 12 -2 9 4 -6 10 -25 14 -25 6z"/>
<path d="M4698 3063 c7 -3 16 -2 19 1 4 3 -2 6 -13 5 -11 0 -14 -3 -6 -6z"/>
<path d="M1952 3000 c-16 -26 -17 -69 -1 -53 10 10 24 73 16 73 -1 0 -8 -9
-15 -20z"/>
<path d="M1391 2914 c0 -11 3 -14 6 -6 3 7 2 16 -1 19 -3 4 -6 -2 -5 -13z"/>
<path d="M1391 2813 c0 -47 3 -62 9 -48 12 28 12 103 0 110 -6 4 -10 -19 -9
-62z"/>
<path d="M1281 2810 c1 -55 1 -55 10 -17 6 24 5 45 -1 55 -7 12 -9 2 -9 -38z"/>
<path d="M1444 2780 c3 -25 5 -58 6 -75 1 -26 2 -28 11 -12 12 21 5 93 -12
117 -7 11 -9 3 -5 -30z"/>
<path d="M1571 2754 c0 -11 3 -14 6 -6 3 7 2 16 -1 19 -3 4 -6 -2 -5 -13z"/>
<path d="M1690 2605 c0 -27 3 -46 6 -42 3 3 6 22 6 42 0 20 -3 39 -6 42 -3 4
-6 -15 -6 -42z"/>
<path d="M1651 2374 c0 -11 3 -14 6 -6 3 7 2 16 -1 19 -3 4 -6 -2 -5 -13z"/>
<path d="M5905 1999 c-22 -5 -67 -13 -99 -18 -32 -6 -63 -14 -68 -19 -11 -11
3 -98 32 -192 11 -36 61 -213 111 -395 50 -181 101 -366 114 -410 l22 -80 59
-3 c84 -4 99 9 85 73 -29 142 -50 203 -61 185 -5 -8 -9 -7 -13 4 -4 10 -1 16
8 16 11 0 15 11 15 36 0 29 -3 35 -16 30 -13 -5 -14 -3 -6 6 6 7 8 34 5 61 -5
40 -9 47 -27 47 -12 0 -27 -5 -34 -12 -9 -9 -12 -4 -12 24 0 20 -5 38 -11 40
-6 2 -11 22 -12 45 -1 22 -5 39 -9 37 -8 -5 -16 19 -22 66 -3 19 -16 80 -30
135 -30 118 -30 115 -11 115 10 0 15 -10 15 -32 1 -18 7 -54 13 -81 10 -38 15
-45 26 -35 10 11 11 3 6 -37 -6 -40 -4 -54 9 -64 12 -10 16 -11 16 -1 0 10 3
10 15 0 9 -7 17 -11 19 -9 5 7 -13 203 -24 249 -6 25 -12 81 -13 125 -2 78 -3
80 -31 93 -15 6 -29 11 -30 11 0 -1 -19 -5 -41 -10z m-15 -29 c0 -5 -4 -10
-10 -10 -5 0 -10 5 -10 10 0 6 5 10 10 10 6 0 10 -4 10 -10z m-3 -52 c-3 -7
-5 -2 -5 12 0 14 2 19 5 13 2 -7 2 -19 0 -25z m60 -35 c-3 -10 -5 -2 -5 17 0
19 2 27 5 18 2 -10 2 -26 0 -35z m-23 3 c-8 -20 -34 -21 -34 -1 0 9 6 12 15 9
8 -4 15 -1 15 7 0 7 2 10 5 7 3 -3 3 -13 -1 -22z m-4 -56 c0 -11 -4 -20 -9
-20 -6 0 -9 9 -8 20 1 11 5 20 9 20 4 0 8 -9 8 -20z m50 -60 c0 -11 -2 -20 -4
-20 -2 0 -6 9 -9 20 -3 11 -1 20 4 20 5 0 9 -9 9 -20z m15 -79 c5 -17 4 -22
-6 -19 -8 3 -15 18 -17 34 -4 33 11 24 23 -15z m95 -371 c0 -5 -4 -10 -10 -10
-5 0 -10 -6 -10 -14 0 -13 -29 -31 -37 -23 -8 8 10 37 23 37 8 0 14 5 14 10 0
6 5 10 10 10 6 0 10 -4 10 -10z m-8 -79 c-5 -3 -12 -15 -14 -26 -4 -18 -6 -18
-12 -3 -5 11 -1 26 11 42 14 19 19 21 21 9 2 -9 0 -18 -6 -22z m15 -53 c-3 -8
-6 -5 -6 6 -1 11 2 17 5 13 3 -3 4 -12 1 -19z"/>
<path d="M6039 1510 c-1 -8 -1 -21 0 -27 1 -7 -3 -13 -9 -13 -5 0 -10 5 -10
12 0 6 -2 9 -5 6 -7 -7 5 -38 14 -38 15 0 32 53 21 64 -7 7 -10 6 -11 -4z"/>
<path d="M6056 1438 c-5 -10 -6 -25 -2 -33 3 -10 -1 -15 -12 -16 -10 0 -6 -5
11 -11 32 -11 45 -5 29 14 -5 7 -12 24 -14 38 -4 21 -6 22 -12 8z"/>
</g>
</svg>
