<svg width="46" height="37" viewBox="0 0 46 37" fill="none" xmlns="http://www.w3.org/2000/svg">
<path d="M16.5895 3.62836H28.763V25.502H16.5895V3.62836Z" fill="#FF5F00"/>
<path d="M8.35829 36.5118V34.1932C8.35829 33.3041 7.81713 32.7246 6.88955 32.7246C6.42585 32.7246 5.92342 32.8792 5.57556 33.3816C5.30515 32.9564 4.91874 32.7246 4.33902 32.7246C3.95243 32.7246 3.56619 32.8404 3.25688 33.2656V32.8019H2.44531V36.5118H3.25688V34.4636C3.25688 33.8067 3.60474 33.4974 4.1459 33.4974C4.68671 33.4974 4.95747 33.8453 4.95747 34.4636V36.5118H5.76903V34.4636C5.76903 33.8067 6.15527 33.4974 6.6577 33.4974C7.19886 33.4974 7.46927 33.8453 7.46927 34.4636V36.5118H8.35829ZM20.377 32.8019H19.0632V31.6812H18.2516V32.8019H17.5173V33.536H18.2515V35.2366C18.2515 36.0869 18.5993 36.5891 19.5269 36.5891C19.8748 36.5891 20.261 36.4733 20.5318 36.3187L20.2997 35.623C20.0679 35.7776 19.7975 35.8163 19.6042 35.8163C19.2178 35.8163 19.0632 35.5844 19.0632 35.1978V33.536H20.377V32.8019ZM27.2561 32.7244C26.7924 32.7244 26.4833 32.9564 26.29 33.2656V32.8019H25.4784V36.5118H26.29V34.425C26.29 33.8067 26.5604 33.4589 27.0628 33.4589C27.2174 33.4589 27.4107 33.4976 27.5653 33.5362L27.7971 32.7633C27.6425 32.7246 27.4107 32.7246 27.2561 32.7246V32.7244ZM16.8603 33.111C16.4738 32.8404 15.9328 32.7246 15.3531 32.7246C14.4257 32.7246 13.8074 33.1883 13.8074 33.9226C13.8074 34.541 14.2711 34.8887 15.0827 35.0047L15.4691 35.0434C15.8942 35.1206 16.1261 35.2366 16.1261 35.4299C16.1261 35.7003 15.8169 35.8936 15.2758 35.8936C14.7348 35.8936 14.3096 35.7003 14.0391 35.5071L13.6526 36.1254C14.0778 36.4345 14.6575 36.5891 15.237 36.5891C16.3192 36.5891 16.9376 36.0869 16.9376 35.3911C16.9376 34.7341 16.4352 34.3863 15.6622 34.2704L15.2758 34.2317C14.9279 34.193 14.6575 34.1159 14.6575 33.884C14.6575 33.6134 14.9279 33.4589 15.3531 33.4589C15.8169 33.4589 16.2806 33.652 16.5125 33.768L16.8603 33.111ZM38.4249 32.7246C37.961 32.7246 37.6519 32.9564 37.4586 33.2656V32.8019H36.647V36.5118H37.4586V34.425C37.4586 33.8067 37.7292 33.4589 38.2314 33.4589C38.3862 33.4589 38.5795 33.4976 38.734 33.5362L38.9659 32.7633C38.8113 32.7246 38.5795 32.7246 38.4249 32.7246ZM28.0677 34.6569C28.0677 35.7776 28.8405 36.5891 30.0387 36.5891C30.5797 36.5891 30.9661 36.4733 31.3525 36.1641L30.9661 35.5071C30.6569 35.739 30.3478 35.8548 29.9999 35.8548C29.343 35.8548 28.8792 35.3911 28.8792 34.6569C28.8792 33.9613 29.343 33.4974 29.9999 33.4589C30.3478 33.4589 30.6569 33.5747 30.9661 33.8067L31.3525 33.1497C30.9661 32.8404 30.5797 32.7246 30.0387 32.7246C28.8405 32.7246 28.0677 33.5362 28.0677 34.6569ZM35.5651 34.6569V32.8019H34.7535V33.2656C34.4829 32.9179 34.0965 32.7246 33.5941 32.7246C32.5507 32.7246 31.7391 33.5362 31.7391 34.6569C31.7391 35.7776 32.5507 36.5891 33.5941 36.5891C34.1351 36.5891 34.5216 36.396 34.7535 36.0481V36.5118H35.5651V34.6569ZM32.5892 34.6569C32.5892 33.9999 33.0144 33.4589 33.7099 33.4589C34.3669 33.4589 34.8308 33.9613 34.8308 34.6569C34.8308 35.3139 34.3669 35.8548 33.7099 35.8548C33.0144 35.8161 32.5892 35.3139 32.5892 34.6569ZM22.8892 32.7246C21.807 32.7246 21.034 33.4974 21.034 34.6569C21.034 35.8163 21.8068 36.5891 22.9277 36.5891C23.4687 36.5891 24.0099 36.4345 24.435 36.0869L24.0484 35.5071C23.7393 35.739 23.3529 35.8936 22.9664 35.8936C22.464 35.8936 21.9616 35.6617 21.8456 35.0045H24.5896V34.6956C24.6283 33.4974 23.9326 32.7246 22.889 32.7246H22.8892ZM22.8892 33.4201C23.3914 33.4201 23.7395 33.7295 23.8166 34.3092H21.8843C21.9616 33.8067 22.3095 33.4201 22.8892 33.4201ZM43.0237 34.6569V31.3333H42.2121V33.2656C41.9416 32.9179 41.5551 32.7246 41.0527 32.7246C40.0093 32.7246 39.1977 33.5362 39.1977 34.6569C39.1977 35.7776 40.0093 36.5891 41.0527 36.5891C41.5939 36.5891 41.9803 36.396 42.2121 36.0481V36.5118H43.0237V34.6569ZM40.048 34.6569C40.048 33.9999 40.473 33.4589 41.1687 33.4589C41.8257 33.4589 42.2894 33.9613 42.2894 34.6569C42.2894 35.3139 41.8257 35.8548 41.1687 35.8548C40.473 35.8161 40.048 35.3139 40.048 34.6569ZM12.9184 34.6569V32.8019H12.1068V33.2656C11.8362 32.9179 11.4498 32.7246 10.9474 32.7246C9.90396 32.7246 9.09239 33.5362 9.09239 34.6569C9.09239 35.7776 9.90396 36.5891 10.9474 36.5891C11.4885 36.5891 11.875 36.396 12.1068 36.0481V36.5118H12.9184V34.6569ZM9.90396 34.6569C9.90396 33.9999 10.3291 33.4589 11.0247 33.4589C11.6817 33.4589 12.1455 33.9613 12.1455 34.6569C12.1455 35.3139 11.6817 35.8548 11.0247 35.8548C10.3291 35.8161 9.90396 35.3139 9.90396 34.6569Z" fill="#F6F6F6"/>
<path d="M17.3625 14.5658C17.3625 10.1216 19.4493 6.17958 22.6568 3.62888C20.2996 1.7739 17.3239 0.653198 14.0776 0.653198C6.38679 0.653198 0.164856 6.87513 0.164856 14.5658C0.164856 22.2563 6.38679 28.4784 14.0775 28.4784C17.3237 28.4784 20.2994 27.3577 22.6568 25.5026C19.4493 22.9906 17.3625 19.01 17.3625 14.5658Z" fill="#EB001B"/>
<path d="M45.1871 14.5653C45.1871 22.2558 38.9652 28.4779 31.2745 28.4779C28.0283 28.4779 25.0526 27.3572 22.6952 25.502C25.9414 22.9515 27.9897 19.0095 27.9897 14.5653C27.9897 10.121 25.9027 6.17903 22.6952 3.62833C25.0524 1.77335 28.0283 0.652649 31.2745 0.652649C38.9652 0.652649 45.1873 6.91331 45.1873 14.5653H45.1871Z" fill="#F79E1B"/>
</svg>
